<svg width="20" height="20" viewBox="0 0 20 20" fill="none" xmlns="http://www.w3.org/2000/svg">
<path fill-rule="evenodd" clip-rule="evenodd" d="M8.0029 19.4601C9.59222 19.9266 11.1941 20.1114 12.5737 19.9331C17.2279 19.3316 19.7725 13.2968 20 8.56294L8.0029 19.4601ZM2.76651 16.707C3.09897 16.9885 3.45248 17.2555 3.82357 17.5065L19.1326 3.60057C18.9396 3.16312 18.7261 2.77089 18.4939 2.421L2.76651 16.707ZM9.58426 1.00145C5.24708 2.78913 -0.530357 8.30663 0.0390464 12.3362C0.0824895 12.6433 0.155447 12.9443 0.252448 13.2405L14.7704 0.053451C14.4938 0.0174469 14.2106 0.000158608 13.9219 0C12.5704 0 11.0945 0.379074 9.58426 1.00145ZM5.14693 18.2994C5.56196 18.5189 5.98876 18.7196 6.42303 18.9004L19.9526 6.61127C19.9057 6.17081 19.8355 5.75288 19.7372 5.36984C19.7143 5.28118 19.6893 5.19775 19.6654 5.11163L5.14693 18.2994ZM0.918521 14.6303C1.14618 14.9918 1.40983 15.3409 1.70597 15.6754L17.535 1.29726C17.1898 0.987495 16.8199 0.736577 16.4274 0.543074L0.918521 14.6303Z" fill="#ACF709"/>
<path fill-rule="evenodd" clip-rule="evenodd" d="M8.0029 19.4601C9.59222 19.9266 11.1941 20.1114 12.5737 19.9331C17.2279 19.3316 19.7725 13.2968 20 8.56294L8.0029 19.4601ZM2.76651 16.707C3.09897 16.9885 3.45248 17.2555 3.82357 17.5065L19.1326 3.60057C18.9396 3.16312 18.7261 2.77089 18.4939 2.421L2.76651 16.707ZM9.58426 1.00145C5.24708 2.78913 -0.530357 8.30663 0.0390464 12.3362C0.0824895 12.6433 0.155447 12.9443 0.252448 13.2405L14.7704 0.053451C14.4938 0.0174469 14.2106 0.000158608 13.9219 0C12.5704 0 11.0945 0.379074 9.58426 1.00145ZM5.14693 18.2994C5.56196 18.5189 5.98876 18.7196 6.42303 18.9004L19.9526 6.61127C19.9057 6.17081 19.8355 5.75288 19.7372 5.36984C19.7143 5.28118 19.6893 5.19775 19.6654 5.11163L5.14693 18.2994ZM0.918521 14.6303C1.14618 14.9918 1.40983 15.3409 1.70597 15.6754L17.535 1.29726C17.1898 0.987495 16.8199 0.736577 16.4274 0.543074L0.918521 14.6303Z" fill="url(#paint0_radial_1333_1341)"/>
<path fill-rule="evenodd" clip-rule="evenodd" d="M8.0029 19.4601C9.59222 19.9266 11.1941 20.1114 12.5737 19.9331C17.2279 19.3316 19.7725 13.2968 20 8.56294L8.0029 19.4601ZM2.76651 16.707C3.09897 16.9885 3.45248 17.2555 3.82357 17.5065L19.1326 3.60057C18.9396 3.16312 18.7261 2.77089 18.4939 2.421L2.76651 16.707ZM9.58426 1.00145C5.24708 2.78913 -0.530357 8.30663 0.0390464 12.3362C0.0824895 12.6433 0.155447 12.9443 0.252448 13.2405L14.7704 0.053451C14.4938 0.0174469 14.2106 0.000158608 13.9219 0C12.5704 0 11.0945 0.379074 9.58426 1.00145ZM5.14693 18.2994C5.56196 18.5189 5.98876 18.7196 6.42303 18.9004L19.9526 6.61127C19.9057 6.17081 19.8355 5.75288 19.7372 5.36984C19.7143 5.28118 19.6893 5.19775 19.6654 5.11163L5.14693 18.2994ZM0.918521 14.6303C1.14618 14.9918 1.40983 15.3409 1.70597 15.6754L17.535 1.29726C17.1898 0.987495 16.8199 0.736577 16.4274 0.543074L0.918521 14.6303Z" fill="url(#paint1_linear_1333_1341)" style="mix-blend-mode:difference"/>
<path fill-rule="evenodd" clip-rule="evenodd" d="M8.0029 19.4601C9.59222 19.9266 11.1941 20.1114 12.5737 19.9331C17.2279 19.3316 19.7725 13.2968 20 8.56294L8.0029 19.4601ZM2.76651 16.707C3.09897 16.9885 3.45248 17.2555 3.82357 17.5065L19.1326 3.60057C18.9396 3.16312 18.7261 2.77089 18.4939 2.421L2.76651 16.707ZM9.58426 1.00145C5.24708 2.78913 -0.530357 8.30663 0.0390464 12.3362C0.0824895 12.6433 0.155447 12.9443 0.252448 13.2405L14.7704 0.053451C14.4938 0.0174469 14.2106 0.000158608 13.9219 0C12.5704 0 11.0945 0.379074 9.58426 1.00145ZM5.14693 18.2994C5.56196 18.5189 5.98876 18.7196 6.42303 18.9004L19.9526 6.61127C19.9057 6.17081 19.8355 5.75288 19.7372 5.36984C19.7143 5.28118 19.6893 5.19775 19.6654 5.11163L5.14693 18.2994ZM0.918521 14.6303C1.14618 14.9918 1.40983 15.3409 1.70597 15.6754L17.535 1.29726C17.1898 0.987495 16.8199 0.736577 16.4274 0.543074L0.918521 14.6303Z" fill="url(#paint2_linear_1333_1341)" style="mix-blend-mode:screen"/>
<path fill-rule="evenodd" clip-rule="evenodd" d="M8.0029 19.4601C9.59222 19.9266 11.1941 20.1114 12.5737 19.9331C17.2279 19.3316 19.7725 13.2968 20 8.56294L8.0029 19.4601ZM2.76651 16.707C3.09897 16.9885 3.45248 17.2555 3.82357 17.5065L19.1326 3.60057C18.9396 3.16312 18.7261 2.77089 18.4939 2.421L2.76651 16.707ZM9.58426 1.00145C5.24708 2.78913 -0.530357 8.30663 0.0390464 12.3362C0.0824895 12.6433 0.155447 12.9443 0.252448 13.2405L14.7704 0.053451C14.4938 0.0174469 14.2106 0.000158608 13.9219 0C12.5704 0 11.0945 0.379074 9.58426 1.00145ZM5.14693 18.2994C5.56196 18.5189 5.98876 18.7196 6.42303 18.9004L19.9526 6.61127C19.9057 6.17081 19.8355 5.75288 19.7372 5.36984C19.7143 5.28118 19.6893 5.19775 19.6654 5.11163L5.14693 18.2994ZM0.918521 14.6303C1.14618 14.9918 1.40983 15.3409 1.70597 15.6754L17.535 1.29726C17.1898 0.987495 16.8199 0.736577 16.4274 0.543074L0.918521 14.6303Z" fill="#ACF709"/>
<defs>
<radialGradient id="paint0_radial_1333_1341" cx="0" cy="0" r="1" gradientUnits="userSpaceOnUse" gradientTransform="translate(20) rotate(135) scale(28.2843)">
<stop stop-color="#78FFF1"/>
<stop offset="0.2" stop-color="#D0DEFF"/>
<stop offset="0.4" stop-color="#DF97DF"/>
<stop offset="0.6" stop-color="#97EBBE"/>
<stop offset="0.8" stop-color="#F1FCAF"/>
<stop offset="1" stop-color="#C2E3F1"/>
</radialGradient>
<linearGradient id="paint1_linear_1333_1341" x1="0" y1="0" x2="24.6596" y2="9.39486" gradientUnits="userSpaceOnUse">
<stop stop-color="white"/>
<stop offset="0.25"/>
<stop offset="0.5" stop-color="white"/>
<stop offset="0.75"/>
<stop offset="1" stop-color="white"/>
</linearGradient>
<linearGradient id="paint2_linear_1333_1341" x1="0" y1="0" x2="24.6596" y2="9.39486" gradientUnits="userSpaceOnUse">
<stop stop-color="white"/>
<stop offset="0.234375"/>
<stop offset="0.489583" stop-color="white"/>
<stop offset="0.734375"/>
<stop offset="1" stop-color="white"/>
</linearGradient>
</defs>
</svg>
